<svg width="375" height="423" viewBox="0 0 375 423" fill="none" xmlns="http://www.w3.org/2000/svg">
<g clip-path="url(#clip0)">
<g filter="url(#filter0_d)">
<path d="M-51.716 105.61L19.028 176.37C28.3141 185.658 39.3391 193.027 51.4732 198.054C63.6073 203.081 76.6128 205.668 89.747 205.668H100.777C113.911 205.668 126.917 208.255 139.051 213.282C151.185 218.309 162.21 225.678 171.496 234.966L247.214 310.702C256.5 319.99 267.525 327.359 279.659 332.386C291.793 337.413 304.799 340 317.933 340H539.604C567.111 340 589.409 317.701 589.409 290.195C589.409 276.988 584.163 264.322 574.826 254.982L521.991 202.134C514.632 194.774 514.634 182.84 521.994 175.481C525.528 171.948 530.321 169.963 535.319 169.963C545.727 169.963 554.165 161.525 554.165 151.117C554.165 146.12 552.18 141.327 548.647 137.792L440.571 29.691C431.285 20.4025 420.26 13.0343 408.125 8.00727C395.991 2.98026 382.985 0.392917 369.851 0.393002H257.837C244.973 0.39295 232.234 -2.14129 220.349 -7.065C208.464 -11.9887 197.666 -19.2054 188.57 -28.303C179.474 -37.401 168.675 -44.618 156.79 -49.5419C144.905 -54.4658 132.166 -57.0001 119.301 -57L-9.236 -57C-28.671 -57 -44.426 -41.245 -44.426 -21.81C-44.426 -12.4785 -40.7196 -3.52913 -34.122 3.07L-16.526 20.669C-6.811 30.386 -6.81299 46.139 -16.53 55.854C-21.1956 60.5184 -27.5227 63.1388 -34.12 63.139C-47.862 63.139 -59 74.279 -59 88.019C-59.0001 94.6162 -56.38 100.943 -51.716 105.609V105.61Z" fill="url(#paint0_linear)" fill-opacity="0.6"/>
</g>
<path d="M-57.716 111.61L13.028 182.37C22.3141 191.658 33.3391 199.027 45.4732 204.054C57.6073 209.081 70.6128 211.668 83.747 211.668H94.777C107.911 211.668 120.917 214.255 133.051 219.282C145.185 224.309 156.21 231.678 165.496 240.966L241.214 316.702C250.5 325.99 261.525 333.359 273.659 338.386C285.793 343.413 298.799 346 311.933 346H533.604C561.111 346 583.409 323.701 583.409 296.195C583.409 282.988 578.163 270.322 568.826 260.982L515.991 208.134C508.632 200.774 508.634 188.84 515.994 181.481C519.528 177.948 524.321 175.963 529.319 175.963C539.727 175.963 548.165 167.525 548.165 157.117C548.165 152.12 546.18 147.327 542.647 143.792L434.571 35.691C425.285 26.4025 414.26 19.0343 402.125 14.0073C389.991 8.98026 376.985 6.39292 363.851 6.393H251.837C238.973 6.39295 226.234 3.85871 214.349 -1.065C202.464 -5.98871 191.666 -13.2054 182.57 -22.303C173.474 -31.401 162.675 -38.618 150.79 -43.5419C138.905 -48.4658 126.166 -51.0001 113.301 -51L-15.236 -51C-34.671 -51 -50.426 -35.245 -50.426 -15.81C-50.426 -6.47852 -46.7196 2.47087 -40.122 9.07L-22.526 26.669C-12.811 36.386 -12.813 52.139 -22.53 61.854C-27.1956 66.5184 -33.5227 69.1388 -40.12 69.139C-53.862 69.139 -65 80.279 -65 94.019C-65.0001 100.616 -62.38 106.943 -57.716 111.609V111.61Z" fill="url(#paint1_linear)" fill-opacity="0.2"/>
<path d="M-57.716 111.61L13.028 182.37C22.3141 191.658 33.3391 199.027 45.4732 204.054C57.6073 209.081 70.6128 211.668 83.747 211.668H94.777C107.911 211.668 120.917 214.255 133.051 219.282C145.185 224.309 156.21 231.678 165.496 240.966L241.214 316.702C250.5 325.99 261.525 333.359 273.659 338.386C285.793 343.413 298.799 346 311.933 346H533.604C561.111 346 583.409 323.701 583.409 296.195C583.409 282.988 578.163 270.322 568.826 260.982L515.991 208.134C508.632 200.774 508.634 188.84 515.994 181.481C519.528 177.948 524.321 175.963 529.319 175.963C539.727 175.963 548.165 167.525 548.165 157.117C548.165 152.12 546.18 147.327 542.647 143.792L434.571 35.691C425.285 26.4025 414.26 19.0343 402.125 14.0073C389.991 8.98026 376.985 6.39292 363.851 6.393H251.837C238.973 6.39295 226.234 3.85871 214.349 -1.065C202.464 -5.98871 191.666 -13.2054 182.57 -22.303C173.474 -31.401 162.675 -38.618 150.79 -43.5419C138.905 -48.4658 126.166 -51.0001 113.301 -51L-15.236 -51C-34.671 -51 -50.426 -35.245 -50.426 -15.81C-50.426 -6.47852 -46.7196 2.47087 -40.122 9.07L-22.526 26.669C-12.811 36.386 -12.813 52.139 -22.53 61.854C-27.1956 66.5184 -33.5227 69.1388 -40.12 69.139C-53.862 69.139 -65 80.279 -65 94.019C-65.0001 100.616 -62.38 106.943 -57.716 111.609V111.61Z" fill="url(#paint2_linear)" fill-opacity="0.2"/>
<path fill-rule="evenodd" clip-rule="evenodd" d="M153.393 110.116L225.183 182.836C234.607 192.382 245.795 199.954 258.108 205.12C270.422 210.287 283.62 212.946 296.948 212.946H308.141C321.47 212.946 334.667 215.605 346.981 220.771C359.295 225.938 370.483 233.51 379.906 243.056L456.744 320.89C466.167 330.436 477.355 338.008 489.669 343.175C501.983 348.341 515.18 351 528.509 351H753.458C781.372 351 804 328.083 804 299.815C804 286.242 798.677 273.225 789.201 263.626L735.585 209.314C728.117 201.75 728.119 189.485 735.588 181.923C739.175 178.291 744.038 176.251 749.11 176.252C759.672 176.252 768.235 167.58 768.235 156.883C768.235 151.748 766.22 146.822 762.635 143.189L652.961 32.093C643.537 22.5471 632.349 14.9748 620.035 9.80848C607.721 4.64218 594.523 1.98315 581.195 1.98323H467.524C454.469 1.98318 441.542 -0.621283 429.482 -5.68142C417.421 -10.7415 406.463 -18.1582 397.233 -27.5079C388.002 -36.8579 377.044 -44.275 364.983 -49.3353C352.922 -54.3956 339.994 -57.0001 326.939 -57H196.501C176.779 -57 160.791 -40.8085 160.791 -20.835C160.791 -11.2449 164.552 -2.04756 171.247 4.73441L189.102 22.821C198.961 32.8073 198.959 48.9968 189.098 58.9809C184.364 63.7746 177.943 66.4676 171.248 66.4678C157.303 66.4678 146 77.9164 146 92.0372C146 98.8171 148.659 105.32 153.392 110.115L153.393 110.116Z" fill="url(#paint3_linear)" fill-opacity="0.6"/>
<path fill-rule="evenodd" clip-rule="evenodd" d="M153.393 110.116L225.183 182.836C234.607 192.382 245.795 199.954 258.108 205.12C270.422 210.287 283.62 212.946 296.948 212.946H308.141C321.47 212.946 334.667 215.605 346.981 220.771C359.295 225.938 370.483 233.51 379.906 243.056L456.744 320.89C466.167 330.436 477.355 338.008 489.669 343.175C501.983 348.341 515.18 351 528.509 351H753.458C781.372 351 804 328.083 804 299.815C804 286.242 798.677 273.225 789.201 263.626L735.585 209.314C728.117 201.75 728.119 189.485 735.588 181.923C739.175 178.291 744.038 176.251 749.11 176.252C759.672 176.252 768.235 167.58 768.235 156.883C768.235 151.748 766.22 146.822 762.635 143.189L652.961 32.093C643.537 22.5471 632.349 14.9748 620.035 9.80848C607.721 4.64218 594.523 1.98315 581.195 1.98323H467.524C454.469 1.98318 441.542 -0.621283 429.482 -5.68142C417.421 -10.7415 406.463 -18.1582 397.233 -27.5079C388.002 -36.8579 377.044 -44.275 364.983 -49.3353C352.922 -54.3956 339.994 -57.0001 326.939 -57H196.501C176.779 -57 160.791 -40.8085 160.791 -20.835C160.791 -11.2449 164.552 -2.04756 171.247 4.73441L189.102 22.821C198.961 32.8073 198.959 48.9968 189.098 58.9809C184.364 63.7746 177.943 66.4676 171.248 66.4678C157.303 66.4678 146 77.9164 146 92.0372C146 98.8171 148.659 105.32 153.392 110.115L153.393 110.116Z" fill="url(#paint4_linear)"/>
<path fill-rule="evenodd" clip-rule="evenodd" d="M162.46 111.61L233.204 182.37C242.49 191.658 253.515 199.027 265.649 204.054C277.783 209.081 290.789 211.668 303.923 211.668H314.953C328.087 211.668 341.093 214.255 353.227 219.282C365.361 224.309 376.386 231.678 385.672 240.966L461.39 316.702C470.676 325.99 481.701 333.359 493.835 338.386C505.969 343.413 518.975 346 532.109 346H753.78C781.287 346 803.585 323.701 803.585 296.195C803.585 282.988 798.34 270.322 789.002 260.982L736.167 208.134C728.808 200.774 728.81 188.84 736.17 181.481C739.704 177.948 744.497 175.963 749.495 175.963C759.903 175.963 768.341 167.525 768.341 157.117C768.341 152.12 766.356 147.327 762.823 143.792L654.747 35.691C645.461 26.4025 634.436 19.0343 622.301 14.0073C610.167 8.98026 597.161 6.39292 584.027 6.393H472.013C459.149 6.39295 446.41 3.85871 434.525 -1.065C422.64 -5.98871 411.842 -13.2054 402.746 -22.303C393.65 -31.401 382.851 -38.618 370.966 -43.5419C359.081 -48.4658 346.342 -51.0001 333.477 -51H204.94C185.505 -51 169.75 -35.245 169.75 -15.81C169.75 -6.47852 173.456 2.47087 180.054 9.07L197.649 26.669C207.364 36.386 207.362 52.139 197.645 61.854C192.979 66.5184 186.652 69.1388 180.055 69.139C166.313 69.139 155.175 80.279 155.175 94.019C155.175 100.616 157.795 106.943 162.459 111.609L162.46 111.61Z" fill="url(#paint5_linear)" fill-opacity="0.6"/>
</g>
<defs>
<filter id="filter0_d" x="-136" y="-132" width="802.409" height="551" filterUnits="userSpaceOnUse" color-interpolation-filters="sRGB">
<feFlood flood-opacity="0" result="BackgroundImageFix"/>
<feColorMatrix in="SourceAlpha" type="matrix" values="0 0 0 0 0 0 0 0 0 0 0 0 0 0 0 0 0 0 127 0"/>
<feOffset dy="2"/>
<feGaussianBlur stdDeviation="38.5"/>
<feColorMatrix type="matrix" values="0 0 0 0 0 0 0 0 0 0 0 0 0 0 0 0 0 0 0.0240111 0"/>
<feBlend mode="normal" in2="BackgroundImageFix" result="effect1_dropShadow"/>
<feBlend mode="normal" in="SourceGraphic" in2="effect1_dropShadow" result="shape"/>
</filter>
<linearGradient id="paint0_linear" x1="267.193" y1="644.548" x2="267.194" y2="-144.014" gradientUnits="userSpaceOnUse">
<stop stop-color="#4200FF"/>
<stop offset="0.614583" stop-color="#1B72FF"/>
<stop offset="1" stop-color="#00C2FF"/>
</linearGradient>
<linearGradient id="paint1_linear" x1="261.193" y1="650.548" x2="261.194" y2="-138.014" gradientUnits="userSpaceOnUse">
<stop stop-color="#4200FF"/>
<stop offset="0.614583" stop-color="#1B72FF"/>
<stop offset="1" stop-color="#00C2FF"/>
</linearGradient>
<linearGradient id="paint2_linear" x1="259.204" y1="-51" x2="259.204" y2="346" gradientUnits="userSpaceOnUse">
<stop stop-color="white"/>
<stop offset="1" stop-color="white" stop-opacity="0"/>
</linearGradient>
<linearGradient id="paint3_linear" x1="477.018" y1="663.986" x2="477.018" y2="-146.425" gradientUnits="userSpaceOnUse">
<stop stop-color="#4200FF"/>
<stop offset="0.614583" stop-color="#1B72FF"/>
<stop offset="1" stop-color="#00C2FF"/>
</linearGradient>
<linearGradient id="paint4_linear" x1="475" y1="-57" x2="475" y2="351" gradientUnits="userSpaceOnUse">
<stop stop-color="white"/>
<stop offset="1" stop-color="white" stop-opacity="0"/>
</linearGradient>
<linearGradient id="paint5_linear" x1="481.369" y1="650.548" x2="481.369" y2="-138.014" gradientUnits="userSpaceOnUse">
<stop stop-color="#4200FF"/>
<stop offset="0.614583" stop-color="#1B72FF"/>
<stop offset="1" stop-color="#00C2FF"/>
</linearGradient>
<clipPath id="clip0">
<rect width="375" height="423" fill="white"/>
</clipPath>
</defs>
</svg>
